<svg style="shape-rendering:geometricPrecision;text-rendering:geometricPrecision;image-rendering:optimizeQuality;fill-rule:evenodd;clip-rule:evenodd" viewBox="0 0 512 512"><path d="M511.5 312.5v17c-3.881 11.883-10.881 21.716-21 29.5a142.485 142.485 0 0 1-32.5 18.5c-7.105-1.556-9.438-5.889-7-13a987.171 987.171 0 0 0 25.5-15.5c8.401-5.728 14.568-13.228 18.5-22.5.81-4.757.476-9.424-1-14-6.828-11.16-15.995-19.993-27.5-26.5a291.817 291.817 0 0 0-58-22.5 164.307 164.307 0 0 0-1.5 18c-10.363 7.266-21.53 13.099-33.5 17.5-80.59 29.261-160.924 28.595-241-2-10.188-4.009-19.688-9.175-28.5-15.5-.17-6.028-.67-12.028-1.5-18-25.142 6.207-48.476 16.374-70 30.5-21.858 16.561-22.524 33.895-2 52 16.826 11.912 35.16 20.912 55 27 55.494 16.187 112.161 23.687 170 22.5 57.839 1.187 114.506-6.313 170-22.5 9.833-2.167 13.667 1.667 11.5 11.5l-2.5 2.5a485.812 485.812 0 0 1-101 21c-67.134 7.049-133.968 4.882-200.5-6.5A392.472 392.472 0 0 1 52.5 378c-16.513-7.336-31.013-17.503-43.5-30.5-3.995-5.661-7.162-11.661-9.5-18v-18c6.86-17.035 18.527-29.869 35-38.5 22.084-12.084 45.418-20.918 70-26.5 1.549-35.295 8.049-69.628 19.5-103 3.096-8.699 7.596-16.532 13.5-23.5 8.666-1.664 12.5 1.836 11.5 10.5-9.82 16.788-16.486 34.788-20 54a621.925 621.925 0 0 0-5.5 31.5 6.293 6.293 0 0 0 1 3c87.608 39.485 175.108 39.319 262.5-.5-2.201-29.803-9.868-58.136-23-85-10.144-17.939-24.977-23.439-44.5-16.5a87.45 87.45 0 0 0-11 6 458.848 458.848 0 0 0-25 26c-18.667 14-37.333 14-56 0a458.848 458.848 0 0 0-25-26c-11.399-7.806-23.899-10.306-37.5-7.5-5.263-.097-8.096-2.763-8.5-8 .409-4.91 3.075-7.743 8-8.5 20.055-3.089 37.721 1.911 53 15l20 22c12 8.667 24 8.667 36 0l21-23c20.397-16.107 42.397-18.774 66-8 15.078 13.293 25.245 29.793 30.5 49.5a402.469 402.469 0 0 1 15.5 92c26.62 5.816 51.62 15.649 75 29.5 14.65 8.535 24.65 20.702 30 36.5Zm-390-77c76.245 33.559 154.245 38.059 234 13.5a752.626 752.626 0 0 0 34-12.5 233.195 233.195 0 0 1 1 37c-89.988 41.333-179.988 41.333-270 0a250.397 250.397 0 0 1 1-38Z" style="opacity:.931"/></svg>